<svg width="32" height="32" viewBox="0 0 32 32" fill="none" xmlns="http://www.w3.org/2000/svg">
  <circle cx="16" cy="16" r="16" fill="url(#paint0_linear)" />
  <path d="M20.85 21.4C20.4833 21.7333 20.0333 21.9833 19.5 22.15C18.9667 22.3167 18.4 22.4 17.8 22.4C16.7333 22.4 15.7833 22.15 14.95 21.65C14.1167 21.15 13.4667 20.45 13 19.55C12.5333 18.65 12.3 17.6333 12.3 16.5C12.3 15.3667 12.5333 14.35 13 13.45C13.4667 12.55 14.1167 11.85 14.95 11.35C15.7833 10.85 16.7333 10.6 17.8 10.6C18.4 10.6 18.9667 10.6833 19.5 10.85C20.0333 11.0167 20.4833 11.2667 20.85 11.6C21.05 11.7667 21.15 11.9833 21.15 12.25C21.15 12.5167 21.05 12.7333 20.85 12.9C20.6833 13.0667 20.4667 13.15 20.2 13.15C19.9667 13.15 19.75 13.0667 19.55 12.9C19.25 12.6333 18.9167 12.45 18.55 12.35C18.1833 12.25 17.8 12.2 17.4 12.2C16.7333 12.2 16.1333 12.3667 15.6 12.7C15.0667 13.0333 14.65 13.5 14.35 14.1C14.05 14.7 13.9 15.3667 13.9 16.1V16.9C13.9 17.6333 14.05 18.3 14.35 18.9C14.65 19.5 15.0667 19.9667 15.6 20.3C16.1333 20.6333 16.7333 20.8 17.4 20.8C17.8 20.8 18.1833 20.75 18.55 20.65C18.9167 20.55 19.25 20.3667 19.55 20.1C19.75 19.9333 19.9667 19.85 20.2 19.85C20.4667 19.85 20.6833 19.9333 20.85 20.1C21.05 20.2667 21.15 20.4833 21.15 20.75C21.15 21.0167 21.05 21.2333 20.85 21.4Z" fill="white"/>
  <defs>
    <linearGradient id="paint0_linear" x1="0" y1="0" x2="32" y2="32" gradientUnits="userSpaceOnUse">
      <stop stop-color="#3B82F6" />
      <stop offset="1" stop-color="#8B5CF6" />
    </linearGradient>
  </defs>
</svg>
